<svg width="1000" height="1000" viewBox="0 0 1000 1000" fill="none" xmlns="http://www.w3.org/2000/svg">

    <g id="logoHeader">
        <path id="Union" fill-rule="evenodd" clip-rule="evenodd"
              d="M12 0.5H8V4.5H4H0V8.5V12.5V16.5H4H8V12.5H12H16V8.5V4.5V0.5H12ZM4 12.5H8V8.5H12V4.5H8V8.5H4V12.5Z"
              fill="white"/>
    </g>

    <g id="Calendar">
        <path id="Vector" d="M10.375 6C10.5408 6 10.6997 6.06585 10.8169 6.18306C10.9342 6.30027 11 6.45924 11 6.625V7.25H21V6.625C21 6.45924 21.0658 6.30027 21.1831 6.18306C21.3003 6.06585 21.4592 6 21.625 6C21.7908 6 21.9497 6.06585 22.0669 6.18306C22.1842 6.30027 22.25 6.45924 22.25 6.625V7.25H23.5C24.163 7.25 24.7989 7.51339 25.2678 7.98223C25.7366 8.45107 26 9.08696 26 9.75V23.5C26 24.163 25.7366 24.7989 25.2678 25.2678C24.7989 25.7366 24.163 26 23.5 26H8.5C7.83696 26 7.20107 25.7366 6.73223 25.2678C6.26339 24.7989 6 24.163 6 23.5V12.25H26V11H6V9.75C6 9.08696 6.26339 8.45107 6.73223 7.98223C7.20107 7.51339 7.83696 7.25 8.5 7.25H9.75V6.625C9.75 6.45924 9.81585 6.30027 9.93306 6.18306C10.0503 6.06585 10.2092 6 10.375 6V6Z" fill="currentColor"/>
    </g>

    <g id="Dribble">
        <path id="Vector" fill-rule="evenodd" clip-rule="evenodd"
              d="M16.5 4C10.152 4 5 9.152 5 15.5C5 21.848 10.152 27 16.5 27C22.8365 27 28 21.848 28 15.5C28 9.152 22.8365 4 16.5 4ZM24.0958 9.3015C25.5115 11.0255 26.2951 13.1817 26.3167 15.4123C25.9918 15.3505 22.7488 14.6892 19.4814 15.1004C19.4066 14.9394 19.3434 14.764 19.2686 14.5901C19.0688 14.1157 18.8446 13.6298 18.6203 13.1669C22.2371 11.6964 23.8844 9.57606 24.0972 9.30006L24.0958 9.3015ZM16.5 5.69625C18.9941 5.69625 21.2768 6.63063 23.0119 8.16587C22.8365 8.416 21.3516 10.3983 17.8599 11.7079C16.2499 8.75238 14.4674 6.33162 14.1928 5.95788C14.9491 5.78129 15.7234 5.69349 16.5 5.69625ZM12.3212 6.61913C13.6375 8.44338 14.8535 10.3379 15.9638 12.2944C11.3739 13.5162 7.32012 13.4918 6.88312 13.4918C7.19917 12.005 7.85438 10.6114 8.79766 9.41949C9.74094 8.22761 10.9468 7.26973 12.3212 6.62056V6.61913ZM6.67181 15.5144V15.2125C7.09588 15.2269 11.8612 15.2887 16.7631 13.8167C17.0491 14.3644 17.3108 14.9264 17.5609 15.4871L17.1728 15.5992C12.1099 17.2336 9.416 21.6985 9.19031 22.0737C7.56856 20.2734 6.67131 17.936 6.67181 15.5129V15.5144ZM16.5 25.3282C14.3172 25.3316 12.1964 24.6027 10.4769 23.2582C10.6494 22.8959 12.6461 19.0549 18.1833 17.1215C18.2092 17.1086 18.2207 17.1086 18.2466 17.0971C19.1801 19.5068 19.8814 22.0002 20.341 24.5433C19.1277 25.0646 17.8205 25.3318 16.5 25.3282ZM21.9769 23.6449C21.8763 23.0454 21.3516 20.1776 20.0679 16.6471C23.1484 16.1613 25.8423 16.9591 26.1787 17.0712C25.9692 18.3975 25.4876 19.6662 24.7643 20.7974C24.0409 21.9287 23.0914 22.8982 21.9754 23.6449H21.9769Z"
              fill="currentColor"/>
    </g>

    <g id="Github">
        <path id="Vector" d="M15.5 6C9.69875 6 5 10.5882 5 16.2529C5 20.7899 8.00562 24.6219 12.1794 25.9804C12.7044 26.0701 12.9012 25.7625 12.9012 25.4934C12.9012 25.2499 12.8881 24.4425 12.8881 23.5838C10.25 24.058 9.5675 22.9558 9.3575 22.3791C9.23938 22.0843 8.7275 21.1743 8.28125 20.9308C7.91375 20.7386 7.38875 20.2644 8.26813 20.2516C9.095 20.2388 9.68563 20.9949 9.8825 21.3025C10.8275 22.8533 12.3369 22.4175 12.9406 22.1484C13.0325 21.4819 13.3081 21.0334 13.61 20.777C11.2737 20.5207 8.8325 19.6364 8.8325 15.7147C8.8325 14.5997 9.23938 13.6769 9.90875 12.9592C9.80375 12.7029 9.43625 11.6519 10.0138 10.2422C10.0138 10.2422 10.8931 9.97301 12.9012 11.2931C13.7413 11.0624 14.6338 10.947 15.5263 10.947C16.4188 10.947 17.3113 11.0624 18.1513 11.2931C20.1594 9.9602 21.0387 10.2422 21.0387 10.2422C21.6163 11.6519 21.2488 12.7029 21.1438 12.9592C21.8131 13.6769 22.22 14.5868 22.22 15.7147C22.22 19.6492 19.7656 20.5207 17.4294 20.777C17.81 21.0975 18.1381 21.7126 18.1381 22.6738C18.1381 24.0452 18.125 25.1474 18.125 25.4934C18.125 25.7625 18.3219 26.0829 18.8469 25.9804C20.9314 25.2935 22.7428 23.9854 24.026 22.2403C25.3092 20.4953 25.9996 18.4012 26 16.2529C26 10.5882 21.3013 6 15.5 6Z" fill="currentColor"/>
    </g>

    <g id="Card">
        <path id="Vector" d="M5 10.6667C5 9.95942 5.28973 9.28115 5.80546 8.78105C6.32118 8.28095 7.02065 8 7.75 8H24.25C24.9793 8 25.6788 8.28095 26.1945 8.78105C26.7103 9.28115 27 9.95942 27 10.6667V17.3333H5V10.6667ZM20.8125 12C20.6302 12 20.4553 12.0702 20.3264 12.1953C20.1974 12.3203 20.125 12.4899 20.125 12.6667V14C20.125 14.1768 20.1974 14.3464 20.3264 14.4714C20.4553 14.5964 20.6302 14.6667 20.8125 14.6667H23.5625C23.7448 14.6667 23.9197 14.5964 24.0486 14.4714C24.1776 14.3464 24.25 14.1768 24.25 14V12.6667C24.25 12.4899 24.1776 12.3203 24.0486 12.1953C23.9197 12.0702 23.7448 12 23.5625 12H20.8125ZM5 20V21.3333C5 22.0406 5.28973 22.7189 5.80546 23.219C6.32118 23.719 7.02065 24 7.75 24H24.25C24.9793 24 25.6788 23.719 26.1945 23.219C26.7103 22.7189 27 22.0406 27 21.3333V20H5Z" fill="currentColor"/>
    </g>

    <g id="Email">
        <path id="Vector" d="M5.07187 9.20292C5.2168 8.57709 5.57307 8.01832 6.08232 7.6181C6.59158 7.21789 7.22365 6.99996 7.875 7H25.125C25.7764 6.99996 26.4084 7.21789 26.9177 7.6181C27.4269 8.01832 27.7832 8.57709 27.9281 9.20292L16.5 16.0865L5.07187 9.20292ZM5 10.8207V20.8847L13.3418 15.8442L5 10.8207ZM14.7189 16.6758L5.27456 22.3807C5.50791 22.8657 5.87619 23.2753 6.33656 23.5619C6.79693 23.8486 7.33044 24.0005 7.875 24H25.125C25.6695 24.0001 26.2028 23.8479 26.6629 23.561C27.123 23.274 27.491 22.8643 27.724 22.3793L18.2796 16.6744L16.5 17.7468L14.7189 16.6744V16.6758ZM19.6582 15.8457L28 20.8847V10.8207L19.6582 15.8442V15.8457Z" fill="currentColor"/>
    </g>

    <g id="Landmark">
        <path id="Vector" d="M16.5 28C16.5 28 26 19.1156 26 12.375C26 9.8886 24.9991 7.50403 23.2175 5.74587C21.4359 3.98772 19.0196 3 16.5 3C13.9804 3 11.5641 3.98772 9.78249 5.74587C8.00089 7.50403 7 9.8886 7 12.375C7 19.1156 16.5 28 16.5 28ZM16.5 17.0625C15.2402 17.0625 14.032 16.5686 13.1412 15.6896C12.2504 14.8105 11.75 13.6182 11.75 12.375C11.75 11.1318 12.2504 9.93951 13.1412 9.06044C14.032 8.18136 15.2402 7.6875 16.5 7.6875C17.7598 7.6875 18.968 8.18136 19.8588 9.06044C20.7496 9.93951 21.25 11.1318 21.25 12.375C21.25 13.6182 20.7496 14.8105 19.8588 15.6896C18.968 16.5686 17.7598 17.0625 16.5 17.0625Z" fill="currentColor"/>
    </g>

    <g id="Linkedin">
        <path id="Vector" d="M4 5.719C4 4.7695 4.789 4 5.7625 4H26.2375C27.211 4 28 4.7695 28 5.719V26.281C28 27.2305 27.211 28 26.2375 28H5.7625C4.789 28 4 27.2305 4 26.281V5.719ZM11.4145 24.091V13.2535H7.813V24.091H11.4145ZM9.6145 11.773C10.87 11.773 11.6515 10.942 11.6515 9.901C11.629 8.8375 10.8715 8.029 9.6385 8.029C8.4055 8.029 7.6 8.839 7.6 9.901C7.6 10.942 8.3815 11.773 9.5905 11.773H9.6145ZM16.9765 24.091V18.0385C16.9765 17.7145 17.0005 17.3905 17.0965 17.1595C17.356 16.513 17.9485 15.8425 18.9445 15.8425C20.248 15.8425 20.7685 16.8355 20.7685 18.2935V24.091H24.37V17.875C24.37 14.545 22.594 12.997 20.224 12.997C18.313 12.997 17.4565 14.047 16.9765 14.7865V14.824H16.9525C16.9605 14.8115 16.9685 14.799 16.9765 14.7865V13.2535H13.3765C13.4215 14.2705 13.3765 24.091 13.3765 24.091H16.9765Z" fill="currentColor"/>
    </g>

    <g id="Play">
        <path id="Vector" d="M23.192 17.394L10.466 24.778C9.386 25.404 8 24.646 8 23.384L8 8.61596C8 7.35596 9.384 6.59596 10.466 7.22396L23.192 14.608C23.4377 14.7482 23.6419 14.9509 23.7839 15.1956C23.926 15.4402 24.0008 15.7181 24.0008 16.001C24.0008 16.2839 23.926 16.5617 23.7839 16.8063C23.6419 17.051 23.4377 17.2537 23.192 17.394Z" fill="currentColor"/>
    </g>

    <g id="Telegram">
        <path id="Vector" d="M27 15.5C27 18.55 25.7884 21.4751 23.6317 23.6317C21.4751 25.7884 18.55 27 15.5 27C12.45 27 9.52494 25.7884 7.36827 23.6317C5.2116 21.4751 4 18.55 4 15.5C4 12.45 5.2116 9.52494 7.36827 7.36827C9.52494 5.2116 12.45 4 15.5 4C18.55 4 21.4751 5.2116 23.6317 7.36827C25.7884 9.52494 27 12.45 27 15.5ZM15.9126 12.4899C14.7942 12.9556 12.5574 13.9187 9.20519 15.3792C8.66181 15.5949 8.37575 15.8076 8.34987 16.0146C8.30675 16.3639 8.74519 16.5019 9.34175 16.6903L9.59331 16.7693C10.1798 16.9605 10.9704 17.1833 11.3801 17.1919C11.7539 17.2006 12.1693 17.0482 12.6279 16.7319C15.7602 14.6174 17.3774 13.5493 17.478 13.5263C17.5499 13.5091 17.6505 13.4889 17.7166 13.5493C17.7842 13.6083 17.777 13.7218 17.7698 13.752C17.7267 13.9374 16.006 15.5359 15.1162 16.3639C14.8387 16.6227 14.6418 16.8053 14.6016 16.8469C14.5129 16.9375 14.4228 17.0267 14.3313 17.1143C13.7851 17.6404 13.3768 18.0343 14.3529 18.6783C14.8229 18.9888 15.1996 19.2432 15.5747 19.4991C15.983 19.778 16.3912 20.0554 16.9202 20.4033C17.0539 20.4896 17.1833 20.583 17.3084 20.6721C17.7842 21.0114 18.214 21.3161 18.7416 21.2673C19.0492 21.2385 19.3669 20.951 19.5279 20.0885C19.9088 18.0516 20.6578 13.6399 20.8302 11.8214C20.8408 11.6703 20.8345 11.5184 20.8116 11.3686C20.798 11.2478 20.7395 11.1364 20.6477 11.0567C20.5169 10.9664 20.361 10.9196 20.2021 10.923C19.7708 10.9302 19.1052 11.1616 15.9126 12.4899Z" fill="currentColor"/>
    </g>

    <g id="Codewars">
        <path id="Vector" d="M1.072.142A1.072 1.072 0 0 0 0 1.214v21.572a1.072 1.072 0 0 0 1.072 1.072h21.856A1.072 1.072 0 0 0 24 22.786V1.214A1.072 1.072 0 0 0 22.928.142zm9.736 1.818a.904.904 0 0 1 .828.539.784.784 0 0 1 1.274.493.639.639 0 0 1 .29-.06c.33.008.59.262.625.575a1.322 1.322 0 0 1 .624-.515 1.325 1.325 0 0 1 1.718.71 1.098 1.098 0 0 1 .306-.236 1.102 1.102 0 0 1 1.483.479 1.094 1.094 0 0 1 .12.47.994.994 0 0 1 1.322 1.214.904.904 0 0 1 .874 1.438.784.784 0 0 1 .176 1.356.639.639 0 0 1 .19.224.642.642 0 0 1-.011.613 1.326 1.326 0 0 1 .482.235 1.334 1.334 0 0 1 .258 1.842 1.098 1.098 0 0 1 .35.15 1.102 1.102 0 0 1 .337 1.516 1.094 1.094 0 0 1-.344.344.994.994 0 0 1 .228 1.318 1.006 1.006 0 0 1-.605.434.904.904 0 0 1-.803 1.482.814.814 0 0 0-.008-.04.784.784 0 0 1-1.075.873.639.639 0 0 1-.098.28.625.625 0 0 1-.43.288 1.33 1.33 0 0 1 .023.456 1.334 1.334 0 0 1-1.44 1.173 1.098 1.098 0 0 1 .054.377 1.102 1.102 0 0 1-1.128 1.072 1.098 1.098 0 0 1-.47-.12.994.994 0 0 1-1.696.583.904.904 0 0 1-1.685.075.784.784 0 0 1-1.274-.493.639.639 0 0 1-.29.064.64.64 0 0 1-.621-.58l.004-.007a1.326 1.326 0 0 1-.632.523 1.334 1.334 0 0 1-1.718-.706 1.098 1.098 0 0 1-.306.232 1.102 1.102 0 0 1-1.48-.478 1.094 1.094 0 0 1-.123-.471.994.994 0 0 1-1.318-1.21.904.904 0 0 1-.874-1.442.784.784 0 0 1-.176-1.356.639.639 0 0 1-.194-.224.642.642 0 0 1 .011-.61l.019.004a1.326 1.326 0 0 1-.497-.239 1.334 1.334 0 0 1-.262-1.845 1.098 1.098 0 0 1-.35-.146 1.102 1.102 0 0 1-.337-1.52 1.094 1.094 0 0 1 .347-.34A.994.994 0 0 1 2.88 9a.904.904 0 0 1 .803-1.48.784.784 0 0 1 1.083-.836.639.639 0 0 1 .098-.28.649.649 0 0 1 .433-.288 1.33 1.33 0 0 1-.026-.452A1.334 1.334 0 0 1 6.716 4.49a1.098 1.098 0 0 1-.06-.377 1.101 1.101 0 0 1 1.13-1.073 1.094 1.094 0 0 1 .47.115.994.994 0 0 1 1.696-.579.904.904 0 0 1 .857-.617zM3.683 7.519a.784.784 0 0 0 .008.041l-.004-.04a.904.904 0 0 0-.004-.001zM17.502 19.61a1.098 1.098 0 0 0-.002-.004h-.037a1.334 1.334 0 0 0 .039.004zM13.825 3.507a1.322 1.322 0 0 0-.008.012l.008-.011zm-2.369-.014-.003.003a.9.9 0 0 1-.665.27.896.896 0 0 1-.583-.232.994.994 0 0 1-.986.732.99.99 0 0 1-.362-.075 1.098 1.098 0 0 1-1.061 1.046 1.326 1.326 0 0 1 .123.736 1.334 1.334 0 0 1-.725 1.035 1.1 1.1 0 0 1 .307.795 1.106 1.106 0 0 1-.232.65c.321.18.53.523.523.915a1.016 1.016 0 0 1-.07.337.915.915 0 0 1 .82.937.923.923 0 0 1-.01.138.74.74 0 0 1 .157-.01c.343.007.627.25.702.57a.661.661 0 0 1 .38-.111c.31.007.561.224.632.511a.418.418 0 0 1 .381-.015 1.352 1.352 0 0 1 .303-.63.418.418 0 0 1-.12-.143.422.422 0 0 1 .004-.392.665.665 0 0 1-.325-1.117.736.736 0 0 1-.359-.336.74.74 0 0 1 .385-1.023.747.747 0 0 0-.06.026.915.915 0 0 1-.201-.262.915.915 0 0 1 .623-1.315V6.53a1.02 1.02 0 0 1 .437-1.371 1.012 1.012 0 0 1 .553-.112 1.11 1.11 0 0 1 .598-1.054 1.12 1.12 0 0 1 .06-.026.642.642 0 0 1-.109-.21.784.784 0 0 1-.455.132.784.784 0 0 1-.662-.396zm4.573 1.512a1.326 1.326 0 0 1-.587.46 1.334 1.334 0 0 1-1.255-.142v-.011a1.11 1.11 0 0 1-.553.66 1.106 1.106 0 0 1-.683.113 1.02 1.02 0 0 1-.553.889 1.016 1.016 0 0 1-.329.105.918.918 0 0 1-.43 1.169.923.923 0 0 1-.127.056.74.74 0 0 1 .086.13.738.738 0 0 1-.168.89.661.661 0 0 1 .28.283.655.655 0 0 1-.149.796.418.418 0 0 1 .153.164c.019.034.03.068.038.101a1.356 1.356 0 0 1 .672-.015.422.422 0 0 1 .056-.142.422.422 0 0 1 .34-.194.665.665 0 0 1 .796-.848.736.736 0 0 1 .112-.478.733.733 0 0 1 1.016-.224.915.915 0 0 1 .127-.306.915.915 0 0 1 1.27-.28.915.915 0 0 1 .179.153 1.02 1.02 0 0 1 1.408-.314 1.012 1.012 0 0 1 .374.422c.355-.24.833-.261 1.214-.015a1.11 1.11 0 0 1 .209.172.642.642 0 0 1 .082-.108.784.784 0 0 1-.332-.337.784.784 0 0 1 .03-.77.9.9 0 0 1-.553-.455.896.896 0 0 1-.075-.624.994.994 0 0 1-1.117-.511.994.994 0 0 1-.104-.359 1.098 1.098 0 0 1-1.427-.43zM5.249 7.37a.784.784 0 0 1-.124.46.784.784 0 0 1-.68.362c.06.235.026.49-.112.71a.896.896 0 0 1-.5.377c.31.325.373.829.12 1.225a.99.99 0 0 1-.255.269 1.098 1.098 0 0 1 .351 1.45 1.326 1.326 0 0 1 .691.276 1.334 1.334 0 0 1 .512 1.154c.28-.064.579-.019.84.15a1.106 1.106 0 0 1 .438.53 1.02 1.02 0 0 1 1.05.03 1.016 1.016 0 0 1 .257.231.914.914 0 0 1 1.225-.224.919.919 0 0 1 .112.086.74.74 0 0 1 .071-.142.74.74 0 0 1 .852-.306.661.661 0 0 1 .1-.381.664.664 0 0 1 .763-.273.418.418 0 0 1 .246-.373 1.36 1.36 0 0 1-.358-.523v-.008a.418.418 0 0 1-.25.075.422.422 0 0 1-.344-.19.665.665 0 0 1-1.132-.243.736.736 0 0 1-.47.149.733.733 0 0 1-.718-.755.915.915 0 0 1-.329.049.915.915 0 0 1-.855-1.177h-.004a1.016 1.016 0 0 1-.993-1.042 1.012 1.012 0 0 1 .168-.534 1.11 1.11 0 0 1-.64-1.035 1.11 1.11 0 0 1 .068-.358.65.65 0 0 1-.1-.019zm11.127 2.133a.913.913 0 0 1-1.225.224.926.926 0 0 1-.112-.082.74.74 0 0 1-.067.142.74.74 0 0 1-.852.302.661.661 0 0 1-.105.385.662.662 0 0 1-.762.277.418.418 0 0 1-.063.212.426.426 0 0 1-.075.086 1.356 1.356 0 0 1 .314.564.418.418 0 0 1 .187-.04.422.422 0 0 1 .343.194.665.665 0 0 1 1.136.242.736.736 0 0 1 .467-.153c.41.008.728.348.72.755a.74.74 0 0 1 0 .008v-.005a.915.915 0 0 1 .326-.052.915.915 0 0 1 .896.941.919.919 0 0 1-.037.236c.564.015 1.008.482.993 1.046a1.012 1.012 0 0 1-.168.534 1.11 1.11 0 0 1 .647 1.035 1.11 1.11 0 0 1-.075.362l.004-.007.1.018a.784.784 0 0 1 .124-.46.784.784 0 0 1 .68-.362.9.9 0 0 1 .112-.71.896.896 0 0 1 .504-.373.994.994 0 0 1-.123-1.225.99.99 0 0 1 .257-.269 1.098 1.098 0 0 1-.35-1.453 1.326 1.326 0 0 1-.696-.273h-.003a1.334 1.334 0 0 1-.512-1.158 1.082 1.082 0 0 1-.837-.145 1.106 1.106 0 0 1-.44-.535 1.02 1.02 0 0 1-1.05-.026 1.016 1.016 0 0 1-.258-.235zm-.094 3.116-.007.066a.74.74 0 0 0 .007-.066zm-2.864-.259a1.36 1.36 0 0 1-.363.598.418.418 0 0 1 .194.187.422.422 0 0 1-.007.396.665.665 0 0 1 .329 1.113.736.736 0 0 1 .358.336.739.739 0 0 1-.32.994.915.915 0 0 1 .197.261.91.91 0 0 1-.396 1.233.919.919 0 0 1-.224.082v.004a1.02 1.02 0 0 1-.44 1.374 1.012 1.012 0 0 1-.55.109 1.11 1.11 0 0 1-.661 1.083.642.642 0 0 1 .112.21.026.026 0 0 1-.004 0v.003a.784.784 0 0 1 .456-.134.784.784 0 0 1 .661.392.9.9 0 0 1 .665-.27.896.896 0 0 1 .587.236.994.994 0 0 1 .982-.736.99.99 0 0 1 .362.079v.022a1.1 1.1 0 0 1 1.061-1.072 1.326 1.326 0 0 1-.123-.736c.056-.46.34-.837.725-1.035l.003.004a1.102 1.102 0 0 1-.31-.795 1.106 1.106 0 0 1 .232-.654 1.02 1.02 0 0 1-.452-1.251.915.915 0 0 1-.822-.934.923.923 0 0 1 .011-.142.74.74 0 0 1-.157.015.74.74 0 0 1-.698-.572.661.661 0 0 1-.385.112.667.667 0 0 1-.627-.512.418.418 0 0 1-.217.053.418.418 0 0 1-.18-.045zm-.964.93a1.36 1.36 0 0 1-.336.042c-.112 0-.22-.012-.322-.038a.418.418 0 0 1-.06.295.422.422 0 0 1-.343.195.665.665 0 0 1-.792.844.736.736 0 0 1-.112.478.74.74 0 0 1-1.02.224.915.915 0 0 1-.127.306.915.915 0 0 1-1.266.28.919.919 0 0 1-.183-.153v.004a1.02 1.02 0 0 1-1.408.31 1.012 1.012 0 0 1-.374-.418c-.355.239-.83.261-1.214.015a1.113 1.113 0 0 1-.21-.172.65.65 0 0 1-.081.105.784.784 0 0 1 .336.336.784.784 0 0 1-.034.77.89.89 0 0 1 .553.455.896.896 0 0 1 .075.624.994.994 0 0 1 1.12.515.99.99 0 0 1 .101.355 1.098 1.098 0 0 1 1.431.43 1.326 1.326 0 0 1 .587-.46c.43-.172.896-.104 1.255.142a1.106 1.106 0 0 1 .549-.65 1.106 1.106 0 0 1 .683-.108 1.02 1.02 0 0 1 .553-.893 1.02 1.02 0 0 1 .333-.104.916.916 0 0 1 .425-1.17.919.919 0 0 1 .131-.052.736.736 0 0 1-.09-.134.738.738 0 0 1 .169-.886.661.661 0 0 1-.28-.284.67.67 0 0 1 .149-.799.418.418 0 0 1-.15-.164.418.418 0 0 1-.048-.24z" fill="currentColor"/>
    </g>

</svg>
