<svg width="50" height="50" viewBox="0 0 16 17" fill="none" xmlns="http://www.w3.org/2000/svg">

    <g id="logoHeader">
        <path id="Union" fill-rule="evenodd" clip-rule="evenodd"
              d="M12 0.5H8V4.5H4H0V8.5V12.5V16.5H4H8V12.5H12H16V8.5V4.5V0.5H12ZM4 12.5H8V8.5H12V4.5H8V8.5H4V12.5Z"
              fill="white"/>
    </g>

    <g id="logoOutline" >
        <mask id="path-1-inside-1_1103_3419" fill="white">
            <path fill-rule="evenodd" clip-rule="evenodd" d="M0 14H13H26V27H13V40H26V53H13H0V40V27V14Z"/>
        </mask>
        <path d="M0 14V13H-1V14H0ZM26 14H27V13H26V14ZM26 27V28H27V27H26ZM13 27V26H12V27H13ZM13 40H12V41H13V40ZM26 40H27V39H26V40ZM26 53V54H27V53H26ZM0 53H-1V54H0V53ZM13 13H0V15H13V13ZM26 13H13V15H26V13ZM27 27V14H25V27H27ZM13 28H26V26H13V28ZM14 40V27H12V40H14ZM13 41H26V39H13V41ZM25 40V53H27V40H25ZM26 52H13V54H26V52ZM0 54H13V52H0V54ZM-1 40V53H1V40H-1ZM-1 27V40H1V27H-1ZM-1 14V27H1V14H-1Z" fill="#C778DD" mask="url(#path-1-inside-1_1103_3419)"/>
        <mask id="path-3-outside-2_1103_3419" maskUnits="userSpaceOnUse" x="25" y="0" width="28" height="41" fill="black">
            <rect fill="white" x="25" width="28" height="41"/>
            <path fill-rule="evenodd" clip-rule="evenodd" d="M26 1H39H52V14V27V40H39H26V27H39V14H26V1Z"/>
        </mask>
        <path d="M26 1V0H25V1H26ZM52 1H53V0H52V1ZM52 40V41H53V40H52ZM26 40H25V41H26V40ZM26 27V26H25V27H26ZM39 27V28H40V27H39ZM39 14H40V13H39V14ZM26 14H25V15H26V14ZM39 0H26V2H39V0ZM52 0H39V2H52V0ZM53 14V1H51V14H53ZM53 27V14H51V27H53ZM53 40V27H51V40H53ZM39 41H52V39H39V41ZM39 39H26V41H39V39ZM27 40V27H25V40H27ZM26 28H39V26H26V28ZM38 14V27H40V14H38ZM26 15H39V13H26V15ZM25 1V14H27V1H25Z" fill="#C778DD" mask="url(#path-3-outside-2_1103_3419)"/>
    </g>

    <g id="Dribble">
        <path id="Vector" fill-rule="evenodd" clip-rule="evenodd"
              d="M16.5 4C10.152 4 5 9.152 5 15.5C5 21.848 10.152 27 16.5 27C22.8365 27 28 21.848 28 15.5C28 9.152 22.8365 4 16.5 4ZM24.0958 9.3015C25.5115 11.0255 26.2951 13.1817 26.3167 15.4123C25.9918 15.3505 22.7488 14.6892 19.4814 15.1004C19.4066 14.9394 19.3434 14.764 19.2686 14.5901C19.0688 14.1157 18.8446 13.6298 18.6203 13.1669C22.2371 11.6964 23.8844 9.57606 24.0972 9.30006L24.0958 9.3015ZM16.5 5.69625C18.9941 5.69625 21.2768 6.63063 23.0119 8.16587C22.8365 8.416 21.3516 10.3983 17.8599 11.7079C16.2499 8.75238 14.4674 6.33162 14.1928 5.95788C14.9491 5.78129 15.7234 5.69349 16.5 5.69625ZM12.3212 6.61913C13.6375 8.44338 14.8535 10.3379 15.9638 12.2944C11.3739 13.5162 7.32012 13.4918 6.88312 13.4918C7.19917 12.005 7.85438 10.6114 8.79766 9.41949C9.74094 8.22761 10.9468 7.26973 12.3212 6.62056V6.61913ZM6.67181 15.5144V15.2125C7.09588 15.2269 11.8612 15.2887 16.7631 13.8167C17.0491 14.3644 17.3108 14.9264 17.5609 15.4871L17.1728 15.5992C12.1099 17.2336 9.416 21.6985 9.19031 22.0737C7.56856 20.2734 6.67131 17.936 6.67181 15.5129V15.5144ZM16.5 25.3282C14.3172 25.3316 12.1964 24.6027 10.4769 23.2582C10.6494 22.8959 12.6461 19.0549 18.1833 17.1215C18.2092 17.1086 18.2207 17.1086 18.2466 17.0971C19.1801 19.5068 19.8814 22.0002 20.341 24.5433C19.1277 25.0646 17.8205 25.3318 16.5 25.3282ZM21.9769 23.6449C21.8763 23.0454 21.3516 20.1776 20.0679 16.6471C23.1484 16.1613 25.8423 16.9591 26.1787 17.0712C25.9692 18.3975 25.4876 19.6662 24.7643 20.7974C24.0409 21.9287 23.0914 22.8982 21.9754 23.6449H21.9769Z"
              fill="#ABB2BF"/>
    </g>

    <g id="Github">
        <path id="Vector"
              d="M15.5 6C9.69875 6 5 10.5882 5 16.2529C5 20.7899 8.00562 24.6219 12.1794 25.9804C12.7044 26.0701 12.9012 25.7625 12.9012 25.4934C12.9012 25.2499 12.8881 24.4425 12.8881 23.5838C10.25 24.058 9.5675 22.9558 9.3575 22.3791C9.23938 22.0843 8.7275 21.1743 8.28125 20.9308C7.91375 20.7386 7.38875 20.2644 8.26813 20.2516C9.095 20.2388 9.68563 20.9949 9.8825 21.3025C10.8275 22.8533 12.3369 22.4175 12.9406 22.1484C13.0325 21.4819 13.3081 21.0334 13.61 20.777C11.2737 20.5207 8.8325 19.6364 8.8325 15.7147C8.8325 14.5997 9.23938 13.6769 9.90875 12.9592C9.80375 12.7029 9.43625 11.6519 10.0138 10.2422C10.0138 10.2422 10.8931 9.97301 12.9012 11.2931C13.7413 11.0624 14.6338 10.947 15.5263 10.947C16.4188 10.947 17.3113 11.0624 18.1513 11.2931C20.1594 9.9602 21.0387 10.2422 21.0387 10.2422C21.6163 11.6519 21.2488 12.7029 21.1438 12.9592C21.8131 13.6769 22.22 14.5868 22.22 15.7147C22.22 19.6492 19.7656 20.5207 17.4294 20.777C17.81 21.0975 18.1381 21.7126 18.1381 22.6738C18.1381 24.0452 18.125 25.1474 18.125 25.4934C18.125 25.7625 18.3219 26.0829 18.8469 25.9804C20.9314 25.2935 22.7428 23.9854 24.026 22.2403C25.3092 20.4953 25.9996 18.4012 26 16.2529C26 10.5882 21.3013 6 15.5 6Z"
              fill="#ABB2BF"/>
    </g>

</svg>
